<svg xmlns="http://www.w3.org/2000/svg" viewBox="0 0 64 64">
  <defs>
    <linearGradient id="bg" x1="0" x2="1" y1="0" y2="1">
      <stop offset="0%" stop-color="#1f6c54"/>
      <stop offset="100%" stop-color="#4f8ba5"/>
    </linearGradient>
  </defs>
  <rect width="64" height="64" rx="16" fill="url(#bg)"/>
  <path d="M17 36c0-6.2 5.4-11 12-11 3.1 0 5.8 1 8 2.8C39 23 42.8 20 47 20c5.5 0 10 4.5 10 10 0 5.3-4.1 9.6-9.2 10H22.5C19.5 40 17 38.2 17 36Z" fill="#f4fbf6"/>
  <path d="M24 45c2.3-2.7 4.6-5.4 6.9-8.1M32 49c2.3-2.7 4.6-5.4 6.9-8.1M40 45c2.3-2.7 4.6-5.4 6.9-8.1" fill="none" stroke="#d7f1de" stroke-linecap="round" stroke-width="3"/>
</svg>
